<?xml version="1.0" encoding="UTF-8" standalone="no"?><!DOCTYPE svg PUBLIC "-//W3C//DTD SVG 1.1//EN" "http://www.w3.org/Graphics/SVG/1.1/DTD/svg11.dtd"><svg width="100%" height="100%" viewBox="0 0 512 512" version="1.1" xmlns="http://www.w3.org/2000/svg" xmlns:xlink="http://www.w3.org/1999/xlink" xml:space="preserve" xmlns:serif="http://www.serif.com/" style="fill-rule:evenodd;clip-rule:evenodd;stroke-linejoin:round;stroke-miterlimit:2;"><path d="M512,44.522c0,-24.572 -19.95,-44.522 -44.522,-44.522l-422.957,0c-24.572,0 -44.522,19.95 -44.522,44.522l0,422.957c0,24.572 19.95,44.522 44.522,44.522l422.957,0c24.572,0 44.522,-19.95 44.522,-44.522l0,-422.957Z" style="fill:#a21d20;"/><path d="M258.5,35.681c10.928,-11.002 27.542,-13.439 42.2,-10.559c14.953,8.75 27.173,22.558 32.231,39.283c-22.263,0.111 -37.363,19.715 -44.267,38.877c-4.947,16.946 -22.927,25.77 -39.652,25.069c-21.746,0.074 -38.249,21.672 -36.477,42.569c1.44,43.197 4.283,86.319 6.203,129.479c-28.17,35.074 -32.379,82.443 -30.57,125.75c1.403,28.945 6.424,57.522 12.627,85.802c16.208,0.148 32.453,-0.775 48.661,0c-15.502,-7.332 -12.363,-0.488 -21.097,-0.276c-23.417,0.568 -47.759,-0.093 -71.167,-0.019c-0.332,-27.432 -1.403,-54.863 -2.031,-82.258c0.406,-17.316 -9.341,-32.527 -11.814,-49.362c-5.095,-26.398 -5.058,-57.595 14.657,-78.308c14.916,-16.319 14.51,-40.317 8.898,-60.401c-5.427,-32.97 -9.562,-66.198 -12.221,-99.537c-1.181,-11.298 2.215,-24.995 13.66,-29.795c15.433,-4.652 31.973,-2.658 47.479,0.849c11.667,4.135 22.817,-7.679 22.3,-18.94c0.96,-20.601 3.987,-43.75 20.38,-58.223Z" style="fill:#fff;fill-rule:nonzero;"/><path d="M288.663,103.282c6.904,-19.162 22.004,-38.766 44.267,-38.877c10.891,0.96 22.078,4.098 30.496,11.334c9.304,13.956 11.63,34.151 1.292,48.218c-7.163,10.891 -20.048,14.953 -30.718,21.266c-6.535,4.91 -9.784,16.208 -3.47,22.521c7.642,8.602 21.894,6.018 29.315,14.916c7.126,9.341 3.507,22.004 -0.96,31.678c-6.24,12.553 -13.439,25.549 -25.401,33.56c-13.254,8.972 -23.887,22.189 -27.727,37.954c-7.236,19.162 9.932,35.443 10.781,54.31c2.437,25.364 -4.024,51.245 -17.648,72.696c-6.092,8.713 -16.725,13.66 -20.528,24.035c-7.015,24.515 -2.4,50.175 1.329,74.837c-10.079,0.148 -20.158,0.369 -30.238,0.222c-16.208,-0.775 -32.453,0.148 -48.661,0c-6.203,-28.281 -11.224,-56.857 -12.627,-85.802c-1.809,-43.307 2.4,-90.676 30.57,-125.75c-1.92,-43.16 -4.763,-86.282 -6.203,-129.479c-1.772,-20.897 14.731,-42.495 36.477,-42.569c16.725,0.701 34.705,-8.122 39.652,-25.069Z" style="fill:#f19a2f;fill-rule:nonzero;"/></svg>